<svg id="SvgjsSvg1370" width="801" height="1701" xmlns="http://www.w3.org/2000/svg" version="1.1" xmlns:xlink="http://www.w3.org/1999/xlink" xmlns:svgjs="http://svgjs.com/svgjs"><defs id="SvgjsDefs1371"><marker id="SvgjsMarker1380" markerWidth="16" markerHeight="12" refX="16" refY="6" viewBox="0 0 16 12" orient="auto" markerUnits="userSpaceOnUse" stroke-dasharray="0,0"><path id="SvgjsPath1381" d="M0,2 L14,6 L0,11 L0,2" fill="#323232" stroke="#323232" stroke-width="2"></path></marker><marker id="SvgjsMarker1404" markerWidth="16" markerHeight="12" refX="16" refY="6" viewBox="0 0 16 12" orient="auto" markerUnits="userSpaceOnUse" stroke-dasharray="0,0"><path id="SvgjsPath1405" d="M0,2 L14,6 L0,11 L0,2" fill="#323232" stroke="#323232" stroke-width="2"></path></marker><marker id="SvgjsMarker1428" markerWidth="16" markerHeight="12" refX="16" refY="6" viewBox="0 0 16 12" orient="auto" markerUnits="userSpaceOnUse" stroke-dasharray="0,0"><path id="SvgjsPath1429" d="M0,2 L14,6 L0,11 L0,2" fill="#323232" stroke="#323232" stroke-width="2"></path></marker><marker id="SvgjsMarker1440" markerWidth="16" markerHeight="12" refX="16" refY="6" viewBox="0 0 16 12" orient="auto" markerUnits="userSpaceOnUse" stroke-dasharray="0,0"><path id="SvgjsPath1441" d="M0,2 L14,6 L0,11 L0,2" fill="#323232" stroke="#323232" stroke-width="2"></path></marker><marker id="SvgjsMarker1454" markerWidth="16" markerHeight="12" refX="16" refY="6" viewBox="0 0 16 12" orient="auto" markerUnits="userSpaceOnUse" stroke-dasharray="0,0"><path id="SvgjsPath1455" d="M0,2 L14,6 L0,11 L0,2" fill="#323232" stroke="#323232" stroke-width="2"></path></marker><marker id="SvgjsMarker1462" markerWidth="16" markerHeight="12" refX="16" refY="6" viewBox="0 0 16 12" orient="auto" markerUnits="userSpaceOnUse" stroke-dasharray="0,0"><path id="SvgjsPath1463" d="M0,2 L14,6 L0,11 L0,2" fill="#323232" stroke="#323232" stroke-width="2"></path></marker><marker id="SvgjsMarker1472" markerWidth="16" markerHeight="12" refX="16" refY="6" viewBox="0 0 16 12" orient="auto" markerUnits="userSpaceOnUse" stroke-dasharray="0,0"><path id="SvgjsPath1473" d="M0,2 L14,6 L0,11 L0,2" fill="#323232" stroke="#323232" stroke-width="2"></path></marker><marker id="SvgjsMarker1482" markerWidth="16" markerHeight="12" refX="16" refY="6" viewBox="0 0 16 12" orient="auto" markerUnits="userSpaceOnUse" stroke-dasharray="0,0"><path id="SvgjsPath1483" d="M0,2 L14,6 L0,11 L0,2" fill="#323232" stroke="#323232" stroke-width="2"></path></marker><marker id="SvgjsMarker1506" markerWidth="16" markerHeight="12" refX="16" refY="6" viewBox="0 0 16 12" orient="auto" markerUnits="userSpaceOnUse" stroke-dasharray="0,0"><path id="SvgjsPath1507" d="M0,2 L14,6 L0,11 L0,2" fill="#323232" stroke="#323232" stroke-width="2"></path></marker><marker id="SvgjsMarker1516" markerWidth="16" markerHeight="12" refX="16" refY="6" viewBox="0 0 16 12" orient="auto" markerUnits="userSpaceOnUse" stroke-dasharray="0,0"><path id="SvgjsPath1517" d="M0,2 L14,6 L0,11 L0,2" fill="#323232" stroke="#323232" stroke-width="2"></path></marker><marker id="SvgjsMarker1532" markerWidth="16" markerHeight="12" refX="16" refY="6" viewBox="0 0 16 12" orient="auto" markerUnits="userSpaceOnUse" stroke-dasharray="0,0"><path id="SvgjsPath1533" d="M0,2 L14,6 L0,11 L0,2" fill="#323232" stroke="#323232" stroke-width="2"></path></marker><marker id="SvgjsMarker1544" markerWidth="16" markerHeight="12" refX="16" refY="6" viewBox="0 0 16 12" orient="auto" markerUnits="userSpaceOnUse" stroke-dasharray="0,0"><path id="SvgjsPath1545" d="M0,2 L14,6 L0,11 L0,2" fill="#323232" stroke="#323232" stroke-width="2"></path></marker><marker id="SvgjsMarker1554" markerWidth="16" markerHeight="12" refX="16" refY="6" viewBox="0 0 16 12" orient="auto" markerUnits="userSpaceOnUse" stroke-dasharray="0,0"><path id="SvgjsPath1555" d="M0,2 L14,6 L0,11 L0,2" fill="#323232" stroke="#323232" stroke-width="2"></path></marker><marker id="SvgjsMarker1574" markerWidth="16" markerHeight="12" refX="16" refY="6" viewBox="0 0 16 12" orient="auto" markerUnits="userSpaceOnUse" stroke-dasharray="0,0"><path id="SvgjsPath1575" d="M0,2 L14,6 L0,11 L0,2" fill="#323232" stroke="#323232" stroke-width="2"></path></marker><marker id="SvgjsMarker1582" markerWidth="16" markerHeight="12" refX="16" refY="6" viewBox="0 0 16 12" orient="auto" markerUnits="userSpaceOnUse" stroke-dasharray="0,0"><path id="SvgjsPath1583" d="M0,2 L14,6 L0,11 L0,2" fill="#323232" stroke="#323232" stroke-width="2"></path></marker><marker id="SvgjsMarker1594" markerWidth="16" markerHeight="12" refX="16" refY="6" viewBox="0 0 16 12" orient="auto" markerUnits="userSpaceOnUse" stroke-dasharray="0,0"><path id="SvgjsPath1595" d="M0,2 L14,6 L0,11 L0,2" fill="#323232" stroke="#323232" stroke-width="2"></path></marker><marker id="SvgjsMarker1602" markerWidth="16" markerHeight="12" refX="16" refY="6" viewBox="0 0 16 12" orient="auto" markerUnits="userSpaceOnUse" stroke-dasharray="0,0"><path id="SvgjsPath1603" d="M0,2 L14,6 L0,11 L0,2" fill="#323232" stroke="#323232" stroke-width="2"></path></marker><marker id="SvgjsMarker1624" markerWidth="16" markerHeight="12" refX="16" refY="6" viewBox="0 0 16 12" orient="auto" markerUnits="userSpaceOnUse" stroke-dasharray="0,0"><path id="SvgjsPath1625" d="M0,2 L14,6 L0,11 L0,2" fill="#323232" stroke="#323232" stroke-width="2"></path></marker><marker id="SvgjsMarker1636" markerWidth="16" markerHeight="12" refX="16" refY="6" viewBox="0 0 16 12" orient="auto" markerUnits="userSpaceOnUse" stroke-dasharray="0,0"><path id="SvgjsPath1637" d="M0,2 L14,6 L0,11 L0,2" fill="#323232" stroke="#323232" stroke-width="2"></path></marker><marker id="SvgjsMarker1652" markerWidth="16" markerHeight="12" refX="16" refY="6" viewBox="0 0 16 12" orient="auto" markerUnits="userSpaceOnUse" stroke-dasharray="0,0"><path id="SvgjsPath1653" d="M0,2 L14,6 L0,11 L0,2" fill="#323232" stroke="#323232" stroke-width="2"></path></marker><marker id="SvgjsMarker1662" markerWidth="16" markerHeight="12" refX="16" refY="6" viewBox="0 0 16 12" orient="auto" markerUnits="userSpaceOnUse" stroke-dasharray="0,0"><path id="SvgjsPath1663" d="M0,2 L14,6 L0,11 L0,2" fill="#323232" stroke="#323232" stroke-width="2"></path></marker><marker id="SvgjsMarker1674" markerWidth="16" markerHeight="12" refX="16" refY="6" viewBox="0 0 16 12" orient="auto" markerUnits="userSpaceOnUse" stroke-dasharray="0,0"><path id="SvgjsPath1675" d="M0,2 L14,6 L0,11 L0,2" fill="#323232" stroke="#323232" stroke-width="2"></path></marker><marker id="SvgjsMarker1682" markerWidth="16" markerHeight="12" refX="16" refY="6" viewBox="0 0 16 12" orient="auto" markerUnits="userSpaceOnUse" stroke-dasharray="0,0"><path id="SvgjsPath1683" d="M0,2 L14,6 L0,11 L0,2" fill="#323232" stroke="#323232" stroke-width="2"></path></marker><marker id="SvgjsMarker1696" markerWidth="16" markerHeight="12" refX="16" refY="6" viewBox="0 0 16 12" orient="auto" markerUnits="userSpaceOnUse" stroke-dasharray="0,0"><path id="SvgjsPath1697" d="M0,2 L14,6 L0,11 L0,2" fill="#323232" stroke="#323232" stroke-width="2"></path></marker><marker id="SvgjsMarker1706" markerWidth="16" markerHeight="12" refX="16" refY="6" viewBox="0 0 16 12" orient="auto" markerUnits="userSpaceOnUse" stroke-dasharray="0,0"><path id="SvgjsPath1707" d="M0,2 L14,6 L0,11 L0,2" fill="#323232" stroke="#323232" stroke-width="2"></path></marker><marker id="SvgjsMarker1716" markerWidth="16" markerHeight="12" refX="16" refY="6" viewBox="0 0 16 12" orient="auto" markerUnits="userSpaceOnUse" stroke-dasharray="0,0"><path id="SvgjsPath1717" d="M0,2 L14,6 L0,11 L0,2" fill="#323232" stroke="#323232" stroke-width="2"></path></marker></defs><g id="SvgjsG1372" transform="translate(262,25)"><path id="SvgjsPath1373" d="M 0 4Q 0 0 4 0L 96 0Q 100 0 100 4L 100 66Q 100 70 96 70L 4 70Q 0 70 0 66Z" stroke="rgba(50,50,50,1)" stroke-width="2" fill-opacity="1" fill="#ffffff"></path><g id="SvgjsG1374"><text id="SvgjsText1375" font-family="微软雅黑" text-anchor="middle" font-size="13px" width="80px" fill="#323232" font-weight="400" align="middle" anchor="middle" family="微软雅黑" size="13px" weight="400" font-style="" opacity="1" y="25.05" transform="rotate(0)"><tspan id="SvgjsTspan1376" dy="16" x="50"><tspan id="SvgjsTspan1377" style="text-decoration:;">开始</tspan></tspan></text></g></g><g id="SvgjsG1378"><path id="SvgjsPath1379" d="M312 95L312 118L312 118L312 141" stroke="#323232" stroke-width="2" fill="none" marker-end="url(#SvgjsMarker1380)"></path></g><g id="SvgjsG1382" transform="translate(262,141)"><path id="SvgjsPath1383" d="M 0 0L 100 0L 100 70L 0 70Z" stroke="rgba(50,50,50,1)" stroke-width="2" fill-opacity="1" fill="#ffffff"></path><g id="SvgjsG1384"><text id="SvgjsText1385" font-family="微软雅黑" text-anchor="middle" font-size="13px" width="80px" fill="#323232" font-weight="400" align="middle" anchor="middle" family="微软雅黑" size="13px" weight="400" font-style="" opacity="1" y="25.05" transform="rotate(0)"><tspan id="SvgjsTspan1386" dy="16" x="50"><tspan id="SvgjsTspan1387" style="text-decoration:;">resolve</tspan></tspan></text></g></g><g id="SvgjsG1388" transform="translate(384,86)"><path id="SvgjsPath1389" d="M 0 0L 112 0L 128 16L 128 80L 0 80L 0 0Z" stroke="none" fill-opacity="1" fill="#ffffaa"></path><path id="SvgjsPath1390" d="M 112 0L 112 16L 128 16Z" stroke="none" fill-opacity="1" fill="#cdcdcd"></path><path id="SvgjsPath1391" d="M 0 0L 112 0L 128 16L 128 80L 0 80L 0 0Z" stroke="none" fill="none"></path><g id="SvgjsG1392"><text id="SvgjsText1393" font-family="微软雅黑" text-anchor="start" font-size="13px" width="108px" fill="#323232" font-weight="400" align="top" anchor="start" family="微软雅黑" size="13px" weight="400" font-style="" opacity="1" y="8.05" transform="rotate(0)"><tspan id="SvgjsTspan1394" dy="16" x="10"><tspan id="SvgjsTspan1395" style="text-decoration:;">1、解析路径上的</tspan></tspan><tspan id="SvgjsTspan1396" dy="16" x="10"><tspan id="SvgjsTspan1397" style="text-decoration:;">查询字符串</tspan></tspan><tspan id="SvgjsTspan1398" dy="16" x="10"><tspan id="SvgjsTspan1399" style="text-decoration:;">2、判断是否模块</tspan></tspan><tspan id="SvgjsTspan1400" dy="16" x="10"><tspan id="SvgjsTspan1401" style="text-decoration:;">3、判断是否目录 </tspan></tspan></text></g></g><g id="SvgjsG1402"><path id="SvgjsPath1403" d="M312 211L312 227L312 227L312 243" stroke="#323232" stroke-width="2" fill="none" marker-end="url(#SvgjsMarker1404)"></path></g><g id="SvgjsG1406" transform="translate(262,243)"><path id="SvgjsPath1407" d="M 0 0L 100 0L 100 70L 0 70Z" stroke="rgba(50,50,50,1)" stroke-width="2" fill-opacity="1" fill="#ffffff"></path><g id="SvgjsG1408"><text id="SvgjsText1409" font-family="微软雅黑" text-anchor="middle" font-size="13px" width="80px" fill="#323232" font-weight="400" align="middle" anchor="middle" family="微软雅黑" size="13px" weight="400" font-style="" opacity="1" y="17.05" transform="rotate(0)"><tspan id="SvgjsTspan1410" dy="16" x="50"><tspan id="SvgjsTspan1411" style="text-decoration:;">parsed-</tspan></tspan><tspan id="SvgjsTspan1412" dy="16" x="50"><tspan id="SvgjsTspan1413" style="text-decoration:;">resolve</tspan></tspan></text></g></g><g id="SvgjsG1414" transform="translate(381,243)"><path id="SvgjsPath1415" d="M 0 0L 112 0L 128 16L 128 80L 0 80L 0 0Z" stroke="none" fill-opacity="1" fill="#ffffaa"></path><path id="SvgjsPath1416" d="M 112 0L 112 16L 128 16Z" stroke="none" fill-opacity="1" fill="#cdcdcd"></path><path id="SvgjsPath1417" d="M 0 0L 112 0L 128 16L 128 80L 0 80L 0 0Z" stroke="none" fill="none"></path><g id="SvgjsG1418"><text id="SvgjsText1419" font-family="微软雅黑" text-anchor="start" font-size="13px" width="108px" fill="#323232" font-weight="400" align="top" anchor="start" family="微软雅黑" size="13px" weight="400" font-style="" opacity="1" y="8.05" transform="rotate(0)"><tspan id="SvgjsTspan1420" dy="16" x="10"><tspan id="SvgjsTspan1421" style="text-decoration:;">1、读取项目描述</tspan></tspan><tspan id="SvgjsTspan1422" dy="16" x="10"><tspan id="SvgjsTspan1423" style="text-decoration:;">文件（默认是</tspan></tspan><tspan id="SvgjsTspan1424" dy="16" x="10"><tspan id="SvgjsTspan1425" style="text-decoration:;">package.json）</tspan></tspan></text></g></g><g id="SvgjsG1426"><path id="SvgjsPath1427" d="M312 313L312 329.5L312 329.5L312 346" stroke="#323232" stroke-width="2" fill="none" marker-end="url(#SvgjsMarker1428)"></path></g><g id="SvgjsG1430" transform="translate(262,346)"><path id="SvgjsPath1431" d="M 0 0L 100 0L 100 70L 0 70Z" stroke="rgba(50,50,50,1)" stroke-width="2" fill-opacity="1" fill="#ffffff"></path><g id="SvgjsG1432"><text id="SvgjsText1433" font-family="微软雅黑" text-anchor="middle" font-size="13px" width="80px" fill="#323232" font-weight="400" align="middle" anchor="middle" family="微软雅黑" size="13px" weight="400" font-style="" opacity="1" y="17.05" transform="rotate(0)"><tspan id="SvgjsTspan1434" dy="16" x="50"><tspan id="SvgjsTspan1435" style="text-decoration:;">described-</tspan></tspan><tspan id="SvgjsTspan1436" dy="16" x="50"><tspan id="SvgjsTspan1437" style="text-decoration:;">resolve</tspan></tspan></text></g></g><g id="SvgjsG1438"><path id="SvgjsPath1439" d="M312 416L312 432L312 432L312 448" stroke="#323232" stroke-width="2" fill="none" marker-end="url(#SvgjsMarker1440)"></path></g><g id="SvgjsG1442" transform="translate(252,448)"><path id="SvgjsPath1443" d="M 0 40L 60 0L 120 40L 60 80Z" stroke="rgba(50,50,50,1)" stroke-width="2" fill-opacity="1" fill="#ffffff"></path><g id="SvgjsG1444"><text id="SvgjsText1445" font-family="微软雅黑" text-anchor="middle" font-size="13px" width="100px" fill="#323232" font-weight="400" align="middle" anchor="middle" family="微软雅黑" size="13px" weight="400" font-style="" opacity="1" y="14.45" transform="rotate(0)"><tspan id="SvgjsTspan1446" dy="16" x="60"><tspan id="SvgjsTspan1447" style="text-decoration:;">匹配到alias或找</tspan></tspan><tspan id="SvgjsTspan1448" dy="16" x="60"><tspan id="SvgjsTspan1449" style="text-decoration:;">到aliasFields指</tspan></tspan><tspan id="SvgjsTspan1450" dy="16" x="60"><tspan id="SvgjsTspan1451" style="text-decoration:;">定的路径？</tspan></tspan></text></g></g><g id="SvgjsG1452"><path id="SvgjsPath1453" d="M252 488L222 488L222 176L262 176" stroke="#323232" stroke-width="2" fill="none" marker-end="url(#SvgjsMarker1454)"></path><rect id="SvgjsRect1456" width="13" height="16" x="215.5" y="319" fill="#ffffff"></rect><text id="SvgjsText1457" font-family="微软雅黑" text-anchor="middle" font-size="13px" width="13px" fill="#323232" font-weight="400" align="top" anchor="middle" family="微软雅黑" size="13px" weight="400" font-style="" opacity="1" y="317.05" transform="rotate(0)"><tspan id="SvgjsTspan1458" dy="16" x="222"><tspan id="SvgjsTspan1459" style="text-decoration:;">是</tspan></tspan></text></g><g id="SvgjsG1460"><path id="SvgjsPath1461" d="M312 528L312 544.5L312 544.5L312 561" stroke="#323232" stroke-width="2" fill="none" marker-end="url(#SvgjsMarker1462)"></path></g><g id="SvgjsG1464" transform="translate(252,561)"><path id="SvgjsPath1465" d="M 0 40L 60 0L 120 40L 60 80Z" stroke="rgba(50,50,50,1)" stroke-width="2" fill-opacity="1" fill="#ffffff"></path><g id="SvgjsG1466"><text id="SvgjsText1467" font-family="微软雅黑" text-anchor="middle" font-size="13px" width="100px" fill="#323232" font-weight="400" align="middle" anchor="middle" family="微软雅黑" size="13px" weight="400" font-style="" opacity="1" y="30.45" transform="rotate(0)"><tspan id="SvgjsTspan1468" dy="16" x="60"><tspan id="SvgjsTspan1469" style="text-decoration:;">判断是否模块？</tspan></tspan></text></g></g><g id="SvgjsG1470"><path id="SvgjsPath1471" d="M312 641L312 666.5L221 666.5L221 692" stroke="#323232" stroke-width="2" fill="none" marker-end="url(#SvgjsMarker1472)"></path></g><g id="SvgjsG1474" transform="translate(362,692)"><path id="SvgjsPath1475" d="M 0 0L 100 0L 100 70L 0 70Z" stroke="rgba(50,50,50,1)" stroke-width="2" fill-opacity="1" fill="#ffffff"></path><g id="SvgjsG1476"><text id="SvgjsText1477" font-family="微软雅黑" text-anchor="middle" font-size="13px" width="80px" fill="#323232" font-weight="400" align="middle" anchor="middle" family="微软雅黑" size="13px" weight="400" font-style="" opacity="1" y="25.05" transform="rotate(0)"><tspan id="SvgjsTspan1478" dy="16" x="50"><tspan id="SvgjsTspan1479" style="text-decoration:;">relative</tspan></tspan></text></g></g><g id="SvgjsG1480"><path id="SvgjsPath1481" d="M312 641L312 666.5L412 666.5L412 692" stroke="#323232" stroke-width="2" fill="none" marker-end="url(#SvgjsMarker1482)"></path></g><g id="SvgjsG1484" transform="translate(171,692)"><path id="SvgjsPath1485" d="M 0 0L 100 0L 100 70L 0 70Z" stroke="rgba(50,50,50,1)" stroke-width="2" fill-opacity="1" fill="#ffffff"></path><g id="SvgjsG1486"><text id="SvgjsText1487" font-family="微软雅黑" text-anchor="middle" font-size="13px" width="80px" fill="#323232" font-weight="400" align="middle" anchor="middle" family="微软雅黑" size="13px" weight="400" font-style="" opacity="1" y="25.05" transform="rotate(0)"><tspan id="SvgjsTspan1488" dy="16" x="50"><tspan id="SvgjsTspan1489" style="text-decoration:;">raw-module</tspan></tspan></text></g></g><g id="SvgjsG1490" transform="translate(43,692)"><path id="SvgjsPath1491" d="M 0 0L 106 0L 122 16L 122 83L 0 83L 0 0Z" stroke="none" fill-opacity="1" fill="#ffffaa"></path><path id="SvgjsPath1492" d="M 106 0L 106 16L 122 16Z" stroke="none" fill-opacity="1" fill="#cdcdcd"></path><path id="SvgjsPath1493" d="M 0 0L 106 0L 122 16L 122 83L 0 83L 0 0Z" stroke="none" fill="none"></path><g id="SvgjsG1494"><text id="SvgjsText1495" font-family="微软雅黑" text-anchor="start" font-size="13px" width="102px" fill="#323232" font-weight="400" align="top" anchor="start" family="微软雅黑" size="13px" weight="400" font-style="" opacity="1" y="8.05" transform="rotate(0)"><tspan id="SvgjsTspan1496" dy="16" x="10"><tspan id="SvgjsTspan1497" style="text-decoration:;">若用户指定了</tspan></tspan><tspan id="SvgjsTspan1498" dy="16" x="10"><tspan id="SvgjsTspan1499" style="text-decoration:;">moduleExtensio</tspan></tspan><tspan id="SvgjsTspan1500" dy="16" x="10"><tspan id="SvgjsTspan1501" style="text-decoration:;">ns则拼接上后缀</tspan></tspan><tspan id="SvgjsTspan1502" dy="16" x="10"><tspan id="SvgjsTspan1503" style="text-decoration:;">走到module</tspan></tspan></text></g></g><g id="SvgjsG1504"><path id="SvgjsPath1505" d="M221 762L221 783L221 783L221 804" stroke="#323232" stroke-width="2" fill="none" marker-end="url(#SvgjsMarker1506)"></path></g><g id="SvgjsG1508" transform="translate(171,804)"><path id="SvgjsPath1509" d="M 0 0L 100 0L 100 70L 0 70Z" stroke="rgba(50,50,50,1)" stroke-width="2" fill-opacity="1" fill="#ffffff"></path><g id="SvgjsG1510"><text id="SvgjsText1511" font-family="微软雅黑" text-anchor="middle" font-size="13px" width="80px" fill="#323232" font-weight="400" align="middle" anchor="middle" family="微软雅黑" size="13px" weight="400" font-style="" opacity="1" y="25.05" transform="rotate(0)"><tspan id="SvgjsTspan1512" dy="16" x="50"><tspan id="SvgjsTspan1513" style="text-decoration:;">module</tspan></tspan></text></g></g><g id="SvgjsG1514"><path id="SvgjsPath1515" d="M221 874L221 904L25 904L25 176L262 176" stroke="#323232" stroke-width="2" fill="none" marker-end="url(#SvgjsMarker1516)"></path></g><g id="SvgjsG1518" transform="translate(43,803)"><path id="SvgjsPath1519" d="M 0 0L 106 0L 122 16L 122 72L 0 72L 0 0Z" stroke="none" fill-opacity="1" fill="#ffffaa"></path><path id="SvgjsPath1520" d="M 106 0L 106 16L 122 16Z" stroke="none" fill-opacity="1" fill="#cdcdcd"></path><path id="SvgjsPath1521" d="M 0 0L 106 0L 122 16L 122 72L 0 72L 0 0Z" stroke="none" fill="none"></path><g id="SvgjsG1522"><text id="SvgjsText1523" font-family="微软雅黑" text-anchor="start" font-size="13px" width="102px" fill="#323232" font-weight="400" align="top" anchor="start" family="微软雅黑" size="13px" weight="400" font-style="" opacity="1" y="8.05" transform="rotate(0)"><tspan id="SvgjsTspan1524" dy="16" x="10"><tspan id="SvgjsTspan1525" style="text-decoration:;">使用</tspan></tspan><tspan id="SvgjsTspan1526" dy="16" x="10"><tspan id="SvgjsTspan1527" style="text-decoration:;">node_modules</tspan></tspan><tspan id="SvgjsTspan1528" dy="16" x="10"><tspan id="SvgjsTspan1529" style="text-decoration:;">数组尝试解析</tspan></tspan></text></g></g><g id="SvgjsG1530"><path id="SvgjsPath1531" d="M412 762L412 782.5L412 782.5L412 803" stroke="#323232" stroke-width="2" fill="none" marker-end="url(#SvgjsMarker1532)"></path></g><g id="SvgjsG1534" transform="translate(362,804)"><path id="SvgjsPath1535" d="M 0 0L 100 0L 100 70L 0 70Z" stroke="rgba(50,50,50,1)" stroke-width="2" fill-opacity="1" fill="#ffffff"></path><g id="SvgjsG1536"><text id="SvgjsText1537" font-family="微软雅黑" text-anchor="middle" font-size="13px" width="80px" fill="#323232" font-weight="400" align="middle" anchor="middle" family="微软雅黑" size="13px" weight="400" font-style="" opacity="1" y="17.05" transform="rotate(0)"><tspan id="SvgjsTspan1538" dy="16" x="50"><tspan id="SvgjsTspan1539" style="text-decoration:;">described-</tspan></tspan><tspan id="SvgjsTspan1540" dy="16" x="50"><tspan id="SvgjsTspan1541" style="text-decoration:;">relative</tspan></tspan></text></g></g><g id="SvgjsG1542"><path id="SvgjsPath1543" d="M412 874L412 886.5L412 886.5L412 899" stroke="#323232" stroke-width="2" fill="none" marker-end="url(#SvgjsMarker1544)"></path></g><g id="SvgjsG1546" transform="translate(352,899)"><path id="SvgjsPath1547" d="M 0 40L 60 0L 120 40L 60 80Z" stroke="rgba(50,50,50,1)" stroke-width="2" fill-opacity="1" fill="#ffffff"></path><g id="SvgjsG1548"><text id="SvgjsText1549" font-family="微软雅黑" text-anchor="middle" font-size="13px" width="100px" fill="#323232" font-weight="400" align="middle" anchor="middle" family="微软雅黑" size="13px" weight="400" font-style="" opacity="1" y="30.45" transform="rotate(0)"><tspan id="SvgjsTspan1550" dy="16" x="60"><tspan id="SvgjsTspan1551" style="text-decoration:;">是否目录？</tspan></tspan></text></g></g><g id="SvgjsG1552"><path id="SvgjsPath1553" d="M412 979L412 1008L329 1008L329 1037" stroke="#323232" stroke-width="2" fill="none" marker-end="url(#SvgjsMarker1554)"></path><rect id="SvgjsRect1556" width="13" height="16" x="364" y="1000" fill="#ffffff"></rect><text id="SvgjsText1557" font-family="微软雅黑" text-anchor="middle" font-size="13px" width="13px" fill="#323232" font-weight="400" align="top" anchor="middle" family="微软雅黑" size="13px" weight="400" font-style="" opacity="1" y="998.05" transform="rotate(0)"><tspan id="SvgjsTspan1558" dy="16" x="370.5"><tspan id="SvgjsTspan1559" style="text-decoration:;">是</tspan></tspan></text></g><g id="SvgjsG1560" transform="translate(279,1037)"><path id="SvgjsPath1561" d="M 0 0L 100 0L 100 70L 0 70Z" stroke="rgba(50,50,50,1)" stroke-width="2" fill-opacity="1" fill="#ffffff"></path><g id="SvgjsG1562"><text id="SvgjsText1563" font-family="微软雅黑" text-anchor="middle" font-size="13px" width="80px" fill="#323232" font-weight="400" align="middle" anchor="middle" family="微软雅黑" size="13px" weight="400" font-style="" opacity="1" y="25.05" transform="rotate(0)"><tspan id="SvgjsTspan1564" dy="16" x="50"><tspan id="SvgjsTspan1565" style="text-decoration:;">directory</tspan></tspan></text></g></g><g id="SvgjsG1566" transform="translate(494,1037)"><path id="SvgjsPath1567" d="M 0 0L 100 0L 100 70L 0 70Z" stroke="rgba(50,50,50,1)" stroke-width="2" fill-opacity="1" fill="#ffffff"></path><g id="SvgjsG1568"><text id="SvgjsText1569" font-family="微软雅黑" text-anchor="middle" font-size="13px" width="80px" fill="#323232" font-weight="400" align="middle" anchor="middle" family="微软雅黑" size="13px" weight="400" font-style="" opacity="1" y="25.05" transform="rotate(0)"><tspan id="SvgjsTspan1570" dy="16" x="50"><tspan id="SvgjsTspan1571" style="text-decoration:;">raw-file</tspan></tspan></text></g></g><g id="SvgjsG1572"><path id="SvgjsPath1573" d="M412 979L412 1008L544 1008L544 1037" stroke="#323232" stroke-width="2" fill="none" marker-end="url(#SvgjsMarker1574)"></path><rect id="SvgjsRect1576" width="13" height="16" x="471.5" y="1000" fill="#ffffff"></rect><text id="SvgjsText1577" font-family="微软雅黑" text-anchor="middle" font-size="13px" width="13px" fill="#323232" font-weight="400" align="top" anchor="middle" family="微软雅黑" size="13px" weight="400" font-style="" opacity="1" y="998.05" transform="rotate(0)"><tspan id="SvgjsTspan1578" dy="16" x="478"><tspan id="SvgjsTspan1579" style="text-decoration:;">否</tspan></tspan></text></g><g id="SvgjsG1580"><path id="SvgjsPath1581" d="M329 1107L329 1123L329 1123L329 1139" stroke="#323232" stroke-width="2" fill="none" marker-end="url(#SvgjsMarker1582)"></path></g><g id="SvgjsG1584" transform="translate(269,1139)"><path id="SvgjsPath1585" d="M 0 40L 60 0L 120 40L 60 80Z" stroke="rgba(50,50,50,1)" stroke-width="2" fill-opacity="1" fill="#ffffff"></path><g id="SvgjsG1586"><text id="SvgjsText1587" font-family="微软雅黑" text-anchor="middle" font-size="13px" width="100px" fill="#323232" font-weight="400" align="middle" anchor="middle" family="微软雅黑" size="13px" weight="400" font-style="" opacity="1" y="22.45" transform="rotate(0)"><tspan id="SvgjsTspan1588" dy="16" x="60"><tspan id="SvgjsTspan1589" style="text-decoration:;">是否解析到目</tspan></tspan><tspan id="SvgjsTspan1590" dy="16" x="60"><tspan id="SvgjsTspan1591" style="text-decoration:;">录？</tspan></tspan></text></g></g><g id="SvgjsG1592"><path id="SvgjsPath1593" d="M329 1219L329 1248.5L235 1248.5L235 1278" stroke="#323232" stroke-width="2" fill="none" marker-end="url(#SvgjsMarker1594)"></path><rect id="SvgjsRect1596" width="13" height="16" x="275.5" y="1240.5" fill="#ffffff"></rect><text id="SvgjsText1597" font-family="微软雅黑" text-anchor="middle" font-size="13px" width="13px" fill="#323232" font-weight="400" align="top" anchor="middle" family="微软雅黑" size="13px" weight="400" font-style="" opacity="1" y="1238.55" transform="rotate(0)"><tspan id="SvgjsTspan1598" dy="16" x="282"><tspan id="SvgjsTspan1599" style="text-decoration:;">否</tspan></tspan></text></g><g id="SvgjsG1600"><path id="SvgjsPath1601" d="M329 1219L329 1248.5L375 1248.5L375 1278" stroke="#323232" stroke-width="2" fill="none" marker-end="url(#SvgjsMarker1602)"></path><rect id="SvgjsRect1604" width="13" height="16" x="345.5" y="1240.5" fill="#ffffff"></rect><text id="SvgjsText1605" font-family="微软雅黑" text-anchor="middle" font-size="13px" width="13px" fill="#323232" font-weight="400" align="top" anchor="middle" family="微软雅黑" size="13px" weight="400" font-style="" opacity="1" y="1238.55" transform="rotate(0)"><tspan id="SvgjsTspan1606" dy="16" x="352"><tspan id="SvgjsTspan1607" style="text-decoration:;">是</tspan></tspan></text></g><g id="SvgjsG1608" transform="translate(325,1278)"><path id="SvgjsPath1609" d="M 0 4Q 0 0 4 0L 96 0Q 100 0 100 4L 100 66Q 100 70 96 70L 4 70Q 0 70 0 66Z" stroke="rgba(50,50,50,1)" stroke-width="2" fill-opacity="1" fill="#ffffff"></path><g id="SvgjsG1610"><text id="SvgjsText1611" font-family="微软雅黑" text-anchor="middle" font-size="13px" width="80px" fill="#323232" font-weight="400" align="middle" anchor="middle" family="微软雅黑" size="13px" weight="400" font-style="" opacity="1" y="25.05" transform="rotate(0)"><tspan id="SvgjsTspan1612" dy="16" x="50"><tspan id="SvgjsTspan1613" style="text-decoration:;">resolved</tspan></tspan></text></g></g><g id="SvgjsG1614" transform="translate(185,1278)"><path id="SvgjsPath1615" d="M 0 0L 100 0L 100 70L 0 70Z" stroke="rgba(50,50,50,1)" stroke-width="2" fill-opacity="1" fill="#ffffff"></path><g id="SvgjsG1616"><text id="SvgjsText1617" font-family="微软雅黑" text-anchor="middle" font-size="13px" width="80px" fill="#323232" font-weight="400" align="middle" anchor="middle" family="微软雅黑" size="13px" weight="400" font-style="" opacity="1" y="17.05" transform="rotate(0)"><tspan id="SvgjsTspan1618" dy="16" x="50"><tspan id="SvgjsTspan1619" style="text-decoration:;">existing-</tspan></tspan><tspan id="SvgjsTspan1620" dy="16" x="50"><tspan id="SvgjsTspan1621" style="text-decoration:;">directory</tspan></tspan></text></g></g><g id="SvgjsG1622"><path id="SvgjsPath1623" d="M235 1348L235 1366.5L235 1366.5L235 1385" stroke="#323232" stroke-width="2" fill="none" marker-end="url(#SvgjsMarker1624)"></path></g><g id="SvgjsG1626" transform="translate(185,1385)"><path id="SvgjsPath1627" d="M 0 0L 100 0L 100 70L 0 70Z" stroke="rgba(50,50,50,1)" stroke-width="2" fill-opacity="1" fill="#ffffff"></path><g id="SvgjsG1628"><text id="SvgjsText1629" font-family="微软雅黑" text-anchor="middle" font-size="13px" width="80px" fill="#323232" font-weight="400" align="middle" anchor="middle" family="微软雅黑" size="13px" weight="400" font-style="" opacity="1" y="17.05" transform="rotate(0)"><tspan id="SvgjsTspan1630" dy="16" x="50"><tspan id="SvgjsTspan1631" style="text-decoration:;">undescribed</tspan></tspan><tspan id="SvgjsTspan1632" dy="16" x="50"><tspan id="SvgjsTspan1633" style="text-decoration:;">-raw-file</tspan></tspan></text></g></g><g id="SvgjsG1634"><path id="SvgjsPath1635" d="M235 1455L235 1485L464 1485L464 1072L494 1072" stroke="#323232" stroke-width="2" fill="none" marker-end="url(#SvgjsMarker1636)"></path></g><g id="SvgjsG1638" transform="translate(644,1037)"><path id="SvgjsPath1639" d="M 0 0L 116 0L 132 16L 132 70L 0 70L 0 0Z" stroke="none" fill-opacity="1" fill="#ffffaa"></path><path id="SvgjsPath1640" d="M 116 0L 116 16L 132 16Z" stroke="none" fill-opacity="1" fill="#cdcdcd"></path><path id="SvgjsPath1641" d="M 0 0L 116 0L 132 16L 132 70L 0 70L 0 0Z" stroke="none" fill="none"></path><g id="SvgjsG1642"><text id="SvgjsText1643" font-family="微软雅黑" text-anchor="start" font-size="13px" width="112px" fill="#323232" font-weight="400" align="top" anchor="start" family="微软雅黑" size="13px" weight="400" font-style="" opacity="1" y="8.05" transform="rotate(0)"><tspan id="SvgjsTspan1644" dy="16" x="10"><tspan id="SvgjsTspan1645" style="text-decoration:;">使用配置的扩展名</tspan></tspan><tspan id="SvgjsTspan1646" dy="16" x="10"><tspan id="SvgjsTspan1647" style="text-decoration:;">解析文件（默认</tspan></tspan><tspan id="SvgjsTspan1648" dy="16" x="10"><tspan id="SvgjsTspan1649" style="text-decoration:;">是.js,.json,.node）</tspan></tspan></text></g></g><g id="SvgjsG1650"><path id="SvgjsPath1651" d="M544 1107L544 1123L544 1123L544 1139" stroke="#323232" stroke-width="2" fill="none" marker-end="url(#SvgjsMarker1652)"></path></g><g id="SvgjsG1654" transform="translate(494,1139)"><path id="SvgjsPath1655" d="M 0 0L 100 0L 100 70L 0 70Z" stroke="rgba(50,50,50,1)" stroke-width="2" fill-opacity="1" fill="#ffffff"></path><g id="SvgjsG1656"><text id="SvgjsText1657" font-family="微软雅黑" text-anchor="middle" font-size="13px" width="80px" fill="#323232" font-weight="400" align="middle" anchor="middle" family="微软雅黑" size="13px" weight="400" font-style="" opacity="1" y="25.05" transform="rotate(0)"><tspan id="SvgjsTspan1658" dy="16" x="50"><tspan id="SvgjsTspan1659" style="text-decoration:;">file</tspan></tspan></text></g></g><g id="SvgjsG1660"><path id="SvgjsPath1661" d="M544 1209L544 1222.5L544 1222.5L544 1236" stroke="#323232" stroke-width="2" fill="none" marker-end="url(#SvgjsMarker1662)"></path></g><g id="SvgjsG1664" transform="translate(484,1236)"><path id="SvgjsPath1665" d="M 0 40L 60 0L 120 40L 60 80Z" stroke="rgba(50,50,50,1)" stroke-width="2" fill-opacity="1" fill="#ffffff"></path><g id="SvgjsG1666"><text id="SvgjsText1667" font-family="微软雅黑" text-anchor="middle" font-size="13px" width="100px" fill="#323232" font-weight="400" align="middle" anchor="middle" family="微软雅黑" size="13px" weight="400" font-style="" opacity="1" y="22.45" transform="rotate(0)"><tspan id="SvgjsTspan1668" dy="16" x="60"><tspan id="SvgjsTspan1669" style="text-decoration:;">是否配置了</tspan></tspan><tspan id="SvgjsTspan1670" dy="16" x="60"><tspan id="SvgjsTspan1671" style="text-decoration:;">alias？</tspan></tspan></text></g></g><g id="SvgjsG1672"><path id="SvgjsPath1673" d="M604 1276L634 1276L634 176L362 176" stroke="#323232" stroke-width="2" fill="none" marker-end="url(#SvgjsMarker1674)"></path><rect id="SvgjsRect1676" width="13" height="16" x="627.5" y="597" fill="#ffffff"></rect><text id="SvgjsText1677" font-family="微软雅黑" text-anchor="middle" font-size="13px" width="13px" fill="#323232" font-weight="400" align="top" anchor="middle" family="微软雅黑" size="13px" weight="400" font-style="" opacity="1" y="595.05" transform="rotate(0)"><tspan id="SvgjsTspan1678" dy="16" x="634"><tspan id="SvgjsTspan1679" style="text-decoration:;">是</tspan></tspan></text></g><g id="SvgjsG1680"><path id="SvgjsPath1681" d="M544 1316L544 1345.5L544 1345.5L544 1375" stroke="#323232" stroke-width="2" fill="none" marker-end="url(#SvgjsMarker1682)"></path><rect id="SvgjsRect1684" width="13" height="16" x="537.5" y="1337.5" fill="#ffffff"></rect><text id="SvgjsText1685" font-family="微软雅黑" text-anchor="middle" font-size="13px" width="13px" fill="#323232" font-weight="400" align="top" anchor="middle" family="微软雅黑" size="13px" weight="400" font-style="" opacity="1" y="1335.55" transform="rotate(0)"><tspan id="SvgjsTspan1686" dy="16" x="544"><tspan id="SvgjsTspan1687" style="text-decoration:;">否</tspan></tspan></text></g><g id="SvgjsG1688" transform="translate(494,1375)"><path id="SvgjsPath1689" d="M 0 0L 100 0L 100 70L 0 70Z" stroke="rgba(50,50,50,1)" stroke-width="2" fill-opacity="1" fill="#ffffff"></path><g id="SvgjsG1690"><text id="SvgjsText1691" font-family="微软雅黑" text-anchor="middle" font-size="13px" width="80px" fill="#323232" font-weight="400" align="middle" anchor="middle" family="微软雅黑" size="13px" weight="400" font-style="" opacity="1" y="25.05" transform="rotate(0)"><tspan id="SvgjsTspan1692" dy="16" x="50"><tspan id="SvgjsTspan1693" style="text-decoration:;">existing-file</tspan></tspan></text></g></g><g id="SvgjsG1694"><path id="SvgjsPath1695" d="M544 1445L544 1470.5L544 1470.5L544 1496" stroke="#323232" stroke-width="2" fill="none" marker-end="url(#SvgjsMarker1696)"></path></g><g id="SvgjsG1698" transform="translate(494,1496)"><path id="SvgjsPath1699" d="M 0 0L 100 0L 100 70L 0 70Z" stroke="rgba(50,50,50,1)" stroke-width="2" fill-opacity="1" fill="#ffffff"></path><g id="SvgjsG1700"><text id="SvgjsText1701" font-family="微软雅黑" text-anchor="middle" font-size="13px" width="80px" fill="#323232" font-weight="400" align="middle" anchor="middle" family="微软雅黑" size="13px" weight="400" font-style="" opacity="1" y="25.05" transform="rotate(0)"><tspan id="SvgjsTspan1702" dy="16" x="50"><tspan id="SvgjsTspan1703" style="text-decoration:;">resolved</tspan></tspan></text></g></g><g id="SvgjsG1704"><path id="SvgjsPath1705" d="M544 1566L544 1586L544 1586L544 1606" stroke="#323232" stroke-width="2" fill="none" marker-end="url(#SvgjsMarker1706)"></path></g><g id="SvgjsG1708" transform="translate(494,1606)"><path id="SvgjsPath1709" d="M 0 4Q 0 0 4 0L 96 0Q 100 0 100 4L 100 66Q 100 70 96 70L 4 70Q 0 70 0 66Z" stroke="rgba(50,50,50,1)" stroke-width="2" fill-opacity="1" fill="#ffffff"></path><g id="SvgjsG1710"><text id="SvgjsText1711" font-family="微软雅黑" text-anchor="middle" font-size="13px" width="80px" fill="#323232" font-weight="400" align="middle" anchor="middle" family="微软雅黑" size="13px" weight="400" font-style="" opacity="1" y="25.05" transform="rotate(0)"><tspan id="SvgjsTspan1712" dy="16" x="50"><tspan id="SvgjsTspan1713" style="text-decoration:;">结束</tspan></tspan></text></g></g><g id="SvgjsG1714"><path id="SvgjsPath1715" d="M375 1348L375 1366.5L375 1366.5L375 1385" stroke="#323232" stroke-width="2" fill="none" marker-end="url(#SvgjsMarker1716)"></path></g><g id="SvgjsG1718" transform="translate(325,1385)"><path id="SvgjsPath1719" d="M 0 4Q 0 0 4 0L 96 0Q 100 0 100 4L 100 66Q 100 70 96 70L 4 70Q 0 70 0 66Z" stroke="rgba(50,50,50,1)" stroke-width="2" fill-opacity="1" fill="#ffffff"></path><g id="SvgjsG1720"><text id="SvgjsText1721" font-family="微软雅黑" text-anchor="middle" font-size="13px" width="80px" fill="#323232" font-weight="400" align="middle" anchor="middle" family="微软雅黑" size="13px" weight="400" font-style="" opacity="1" y="25.05" transform="rotate(0)"><tspan id="SvgjsTspan1722" dy="16" x="50"><tspan id="SvgjsTspan1723" style="text-decoration:;">结束</tspan></tspan></text></g></g><g id="SvgjsG1724" transform="translate(115,25)"><path id="SvgjsPath1725" d="M 0 0L 114 0L 130 16L 130 70L 0 70L 0 0Z" stroke="none" fill-opacity="1" fill="#ffffaa"></path><path id="SvgjsPath1726" d="M 114 0L 114 16L 130 16Z" stroke="none" fill-opacity="1" fill="#cdcdcd"></path><path id="SvgjsPath1727" d="M 0 0L 114 0L 130 16L 130 70L 0 70L 0 0Z" stroke="none" fill="none"></path><g id="SvgjsG1728"><text id="SvgjsText1729" font-family="微软雅黑" text-anchor="middle" font-size="13px" width="110px" fill="#323232" font-weight="400" align="middle" anchor="middle" family="微软雅黑" size="13px" weight="400" font-style="" opacity="1" y="17.05" transform="rotate(0)"><tspan id="SvgjsTspan1730" dy="16" x="65"><tspan id="SvgjsTspan1731" style="text-decoration:;">enhanced-</tspan></tspan><tspan id="SvgjsTspan1732" dy="16" x="65"><tspan id="SvgjsTspan1733" style="text-decoration:;">resolve解析流程</tspan></tspan></text></g></g></svg>